<?xml version="1.0" standalone="no"?>
<!DOCTYPE svg PUBLIC "-//W3C//DTD SVG 1.1//EN" "http://www.w3.org/Graphics/SVG/1.1/DTD/svg11.dtd">
<svg width="100%" height="100%" viewBox="0 0 686 270" version="1.1" xmlns="http://www.w3.org/2000/svg" xmlns:xlink="http://www.w3.org/1999/xlink" xml:space="preserve" style="fill-rule:evenodd;clip-rule:evenodd;stroke-linejoin:round;stroke-miterlimit:1.41421;">
    <g>
        <g transform="matrix(0.635662,0,0,0.635662,124.968,46.705)">
            <path d="M186.155,37.5L165.513,52.662L165.513,84.378L186.155,113.791L186.155,37.5Z" style="fill:rgb(38,34,76);fill-rule:nonzero;"/>
        </g>
        <g transform="matrix(0.635662,0,0,0.635662,124.968,46.705)">
            <path d="M186.155,150.565L106.797,37.5L97.604,44.273L97.604,162.5L118.247,147.338L118.247,88.79L169.865,162.5L192.445,162.5L208.736,150.565L186.155,150.565Z" style="fill:rgb(38,34,76);fill-rule:nonzero;"/>
        </g>
        <g transform="matrix(0.635662,0,0,0.635662,124.968,46.705)">
            <path d="M118.247,88.79L118.247,147.338L97.604,162.5L120.186,162.5L140.829,147.338L140.829,121.038L118.247,88.79Z" style="fill:rgb(0,173,238);fill-rule:nonzero;"/>
        </g>
        <g transform="matrix(0.635662,0,0,0.635662,124.968,46.705)">
            <path d="M186.155,113.791L186.155,37.5L208.736,37.5L208.736,150.565L186.155,150.565L106.797,37.5L132.605,37.5L186.155,113.791Z" style="fill:rgb(0,173,238);fill-rule:nonzero;"/>
        </g>
        <g transform="matrix(0.635662,0,0,0.635662,124.968,46.705)">
            <path d="M327.328,76.416L359.634,117.451L359.634,76.416L367.49,76.416L367.49,131.977L360.902,131.977L327.725,89.83L327.725,131.976L319.869,131.976L319.869,76.416L327.328,76.416Z" style="fill:rgb(38,34,76);fill-rule:nonzero;"/>
            <path d="M438.214,76.416L438.214,83.638L405.672,83.638L405.672,100.306L434.644,100.306L434.644,107.608L405.672,107.608L405.672,124.754L438.611,124.754L438.611,131.978L397.656,131.978L397.656,76.416L438.214,76.416Z" style="fill:rgb(38,34,76);fill-rule:nonzero;"/>
            <path d="M463.299,104.195C463.299,88.48 475.364,75.462 492.19,75.462C509.017,75.462 521.083,88.481 521.083,104.195C521.083,119.911 509.018,132.928 492.19,132.928C475.364,132.929 463.299,119.911 463.299,104.195ZM512.748,104.195C512.748,92.052 504.253,82.844 492.189,82.844C480.127,82.844 471.632,92.052 471.632,104.195C471.632,116.338 480.127,125.546 492.189,125.546C504.253,125.546 512.748,116.338 512.748,104.195Z" style="fill:rgb(38,34,76);fill-rule:nonzero;"/>
            <path d="M545.768,123.721L550.687,118.165C556.169,123.087 561.246,125.704 568.708,125.704C575.375,125.704 580.138,122.292 580.138,117.212C580.138,112.688 577.598,110.308 566.722,107.53C554.105,104.274 547.754,99.909 547.754,91.02C547.754,81.812 556.169,75.461 566.96,75.461C574.978,75.461 580.852,78.082 586.566,82.605L581.963,88.559C576.723,84.432 572.277,82.686 566.882,82.686C560.768,82.686 556.084,85.702 556.084,90.465C556.084,95.068 559.022,97.607 570.294,100.386C582.438,103.322 588.395,108.163 588.395,116.736C588.395,126.736 579.819,132.928 568.627,132.928C559.736,132.929 552.356,129.675 545.768,123.721Z" style="fill:rgb(38,34,76);fill-rule:nonzero;"/>
        </g>
    </g>
</svg>
